# xmcd
#
# Track frame offsets: 
#        150
#        19050
#        38550
#        60413
#        82802
#        99415
#        115420
#        138220
#        158171
#        175650
#        188999
#        209324
#        231314
#
# Disc length: 3412 seconds
#
# Revision: 0
# Processed by: cddbd v1.5.2PL0 Copyright (c) Steve Scherf et al.
# Submitted via: ExactAudioCopyFreeDBPlugin 1.0
#
DISCID=9d0d520d
DTITLE=Reggie Garret and the SnakeOil Peddlers - Something New
DYEAR=1900
DGENRE=
TTITLE0=Falling
TTITLE1=Come and See Me
TTITLE2=Hard to Please
TTITLE3=Come Back to You
TTITLE4=Through and Through
TTITLE5=Wish I Could See You Again
TTITLE6=I've Come for You
TTITLE7=I'm Not the One
TTITLE8=Interlude
TTITLE9=Pretty One
TTITLE10=Lay Down Beside Me
TTITLE11=Something New
TTITLE12=Lovin' Man
EXTD=
EXTT0=
EXTT1=
EXTT2=
EXTT3=
EXTT4=
EXTT5=
EXTT6=
EXTT7=
EXTT8=
EXTT9=
EXTT10=
EXTT11=
EXTT12=
PLAYORDER=
